<svg width="128" height="128" viewBox="0 0 128 128" fill="none" xmlns="http://www.w3.org/2000/svg">
<g id="DefaultProjectIcon" clip-path="url(#clip0_289_2)">
<path id="Vector" d="M112 2H16C8.26801 2 2 8.26801 2 16V112C2 119.732 8.26801 126 16 126H112C119.732 126 126 119.732 126 112V16C126 8.26801 119.732 2 112 2Z" stroke="#1E1E1E" stroke-width="4"/>
<path id="S" d="M65.8 90.8C50.04 90.8 42.76 84.4 42.76 72.56V71.52H54.52V72.32C54.52 78.24 56.68 79.92 66.36 79.92C73.16 79.92 74.84 78.56 74.84 74.96C74.84 71.36 74.04 70.08 66.52 68.8L57.08 67.12C46.84 65.36 42.52 60.16 42.52 51.84C42.52 43.68 48.52 35.6 63.88 35.6C79.16 35.6 85.56 43.52 85.56 54.16V54.8H73.72V53.92C73.72 48.32 71.4 46.48 63.48 46.48C56.6 46.48 54.44 48 54.44 51.36C54.44 54.8 55.88 55.6 62.12 56.8L71.64 58.64C82.92 60.8 86.76 66.72 86.76 74.56C86.76 83.12 81 90.8 65.8 90.8Z" fill="white"/>
</g>
<defs>
<clipPath id="clip0_289_2">
<rect width="128" height="128" fill="white"/>
</clipPath>
</defs>
</svg>
